#!OML:ASF G:\JayActor3\Patient Classification 1\Patient 1\Session 6\male.ASF
:FULLY-SPECIFIED
:DEGREES
2130
root 9.84518 15.8898 -16.5906 -13.2216 -156.232 5.01554
lowerback -8.51845 3.97585 2.451
upperback 2.96824 5.19145 -2.63232
thorax 8.40305 2.71627 -3.34125
lowerneck -4.83067 3.49293 4.5067
upperneck 26.6399 2.46737 0.722279
head 9.21155 1.01315 -0.401674
rclavicle -2.28602e-014 1.59028e-015
rhumerus 22.964 47.8143 -18.6519
rradius 128.376
rwrist -73.8038
rhand -44.1767 -20.1856
rfingers 7.12502
rthumb -16.9913 -49.4624
lclavicle -2.28602e-014 1.59028e-015
lhumerus -47.3572 18.6764 48.845
lradius 15.8717
lwrist 29.3718
lhand -11.8181 10.2615
lfingers 7.12502
lthumb 14.2323 39.7538
rfemur -3.28112 -1.75253 16.3031
rtibia 36.5881
rfoot -28.0791 -24.4643
rtoes 4.41037
lfemur 9.19914 -4.2334 -7.90863
ltibia 24.6528
lfoot -37.5216 33.262
ltoes 19.128
2131
root 9.84701 15.8896 -16.5868 -13.2381 -156.087 5.01378
lowerback -8.47603 4.01259 2.55547
upperback 3.00856 5.23028 -2.64144
thorax 8.43683 2.742 -3.40417
lowerneck -4.83127 3.54375 4.51818
upperneck 27.2695 2.42242 0.80407
head 9.43571 0.976379 -0.38343
rclavicle -2.56432e-014 1.04958e-013
rhumerus 22.2438 48.0043 -19.1572
rradius 128.181
rwrist -73.7245
rhand -44.1697 -20.1452
rfingers 7.12502
rthumb -16.9845 -49.4227
lclavicle -2.56432e-014 1.04958e-013
lhumerus -47.2577 18.5808 48.8373
lradius 16.0549
lwrist 29.5939
lhand -11.8732 10.2754
lfingers 7.12502
lthumb 14.1791 39.7715
rfemur -3.23287 -1.81163 16.278
rtibia 36.5662
rfoot -28.1541 -24.4803
rtoes 4.44366
lfemur 9.13669 -4.13512 -7.85267
ltibia 24.6643
lfoot -37.2402 33.1678
ltoes 18.9767
2132
root 9.84881 15.8896 -16.5831 -13.2534 -155.935 5.01481
lowerback -8.43643 4.04966 2.65392
upperback 3.04983 5.27005 -2.64719
thorax 8.47261 2.76784 -3.45977
lowerneck -4.84351 3.59119 4.53625
upperneck 27.8903 2.37277 0.876148
head 9.66161 0.937594 -0.369991
rclavicle 2.04748e-014 1.59028e-014
rhumerus 21.4779 48.1723 -19.6867
rradius 127.987
rwrist -73.6368
rhand -44.1613 -20.107
rfingers 7.12502
rthumb -16.9765 -49.3851
lclavicle 2.04748e-014 1.59028e-014
lhumerus -47.1204 18.471 48.8526
lradius 16.2614
lwrist 29.8198
lhand -11.9498 10.2771
lfingers 7.12502
lthumb 14.1054 39.7784
rfemur -3.18599 -1.87471 16.2555
rtibia 36.5438
rfoot -28.2268 -24.4966
rtoes 4.47547
lfemur 9.07151 -4.05557 -7.8011
ltibia 24.6752
lfoot -36.9791 33.0744
ltoes 18.8434
2133
root 9.85069 15.8898 -16.5796 -13.264 -155.776 5.01512
lowerback -8.40125 4.08567 2.74465
upperback 3.09143 5.30919 -2.65292
thorax 8.51068 2.793 -3.51085
lowerneck -4.85558 3.63708 4.55676
upperneck 28.4918 2.321 0.946359
head 9.88311 0.898463 -0.357839
rclavicle 7.93151e-014 3.49861e-014
rhumerus 20.6692 48.3156 -20.2452
rradius 127.793
rwrist -73.5393
rhand -44.1486 -20.0861
rfingers 7.12502
rthumb -16.9642 -49.3652
lclavicle 7.93151e-014 3.49861e-014
lhumerus -46.9511 18.3485 48.8849
lradius 16.4956
lwrist 30.0584
lhand -12.0343 10.2639
lfingers 7.12502
lthumb 14.024 39.7708
rfemur -3.14344 -1.94029 16.2326
rtibia 36.522
rfoot -28.3025 -24.5169
rtoes 4.50777
lfemur 9.00284 -4.00572 -7.76126
ltibia 24.6831
lfoot -36.762 32.9725
ltoes 18.7574
2134
root 9.85275 15.8903 -16.5763 -13.2699 -155.613 5.01384
lowerback -8.36876 4.11934 2.80727
upperback 3.13116 5.34748 -2.6431
thorax 8.54383 2.81577 -3.52967
lowerneck -4.86992 3.68073 4.56886
upperneck 29.0779 2.26992 1.00699
head 10.1018 0.858405 -0.347529
rclavicle -7.39479e-014 7.95139e-015
rhumerus 19.8364 48.4431 -20.796
rradius 127.601
rwrist -73.4312
rhand -44.1309 -20.0758
rfingers 7.12502
rthumb -16.9472 -49.3565
lclavicle -7.39479e-014 7.95139e-015
lhumerus -46.7699 18.2508 48.9231
lradius 16.7476
lwrist 30.2823
lhand -12.1122 10.2375
lfingers 7.12502
lthumb 13.9489 39.7496
rfemur -3.10657 -1.99526 16.2127
rtibia 36.5024
rfoot -28.3872 -24.5526
rtoes 4.55793
lfemur 8.93484 -3.98213 -7.73299
ltibia 24.6851
lfoot -36.5902 32.8658
ltoes 18.7137
2135
root 9.85501 15.891 -16.5733 -13.2699 -155.446 5.00703
lowerback -8.33918 4.15114 2.85493
upperback 3.16928 5.38478 -2.63197
thorax 8.57526 2.83715 -3.53878
lowerneck -4.87663 3.72363 4.57334
upperneck 29.6355 2.21843 1.07608
head 10.3106 0.818988 -0.333004
rclavicle 2.10712e-014 1.90833e-014
rhumerus 18.9684 48.5503 -21.365
rradius 127.41
rwrist -73.3072
rhand -44.0983 -20.0814
rfingers 7.12502
rthumb -16.9159 -49.3647
lclavicle 2.10712e-014 1.90833e-014
lhumerus -46.5702 18.1394 48.9798
lradius 17.032
lwrist 30.5397
lhand -12.1903 10.2007
lfingers 7.12502
lthumb 13.8736 39.718
rfemur -3.07477 -2.04241 16.1911
rtibia 36.4862
rfoot -28.4758 -24.6119
rtoes 4.60789
lfemur 8.86743 -3.98527 -7.72129
ltibia 24.6797
lfoot -36.4466 32.7706
ltoes 18.6833
2136
root 9.85748 15.8918 -16.5707 -13.2659 -155.276 4.99384
lowerback -8.30903 4.18333 2.8932
upperback 3.20497 5.42374 -2.62379
thorax 8.60328 2.8588 -3.54559
lowerneck -4.87554 3.76478 4.5717
upperneck 30.1663 2.16318 1.15878
head 10.5099 0.779304 -0.31294
rclavicle -6.36111e-014 1.11319e-014
rhumerus 18.0715 48.6389 -21.9569
rradius 127.212
rwrist -73.1678
rhand -44.0567 -20.0994
rfingers 7.12502
rthumb -16.8758 -49.3861
lclavicle -6.36111e-014 1.11319e-014
lhumerus -46.3459 18.0126 49.0478
lradius 17.3367
lwrist 30.8335
lhand -12.2689 10.1562
lfingers 7.12502
lthumb 13.7979 39.6786
rfemur -3.04574 -2.0785 16.1672
rtibia 36.4737
rfoot -28.5767 -24.678
rtoes 4.66645
lfemur 8.80331 -4.00417 -7.72352
ltibia 24.6674
lfoot -36.313 32.694
ltoes 18.6446
2137
root 9.86014 15.8926 -16.5684 -13.2581 -155.104 4.97671
lowerback -8.27846 4.21544 2.92727
upperback 3.23717 5.46332 -2.6205
thorax 8.62749 2.88055 -3.5553
lowerneck -4.86467 3.80589 4.56527
upperneck 30.6689 2.10618 1.2567
head 10.6985 0.740644 -0.28668
rclavicle -2.8625e-014 6.36111e-015
rhumerus 17.1472 48.7117 -22.5715
rradius 127.009
rwrist -73.0215
rhand -43.999 -20.1178
rfingers 7.12502
rthumb -16.8203 -49.4093
lclavicle -2.8625e-014 6.36111e-015
lhumerus -46.0995 17.8495 49.1398
lradius 17.6692
lwrist 31.1881
lhand -12.3611 10.1016
lfingers 7.12502
lthumb 13.709 39.6301
rfemur -3.01919 -2.1075 16.1428
rtibia 36.4639
rfoot -28.6832 -24.7538
rtoes 4.71506
lfemur 8.73999 -4.03338 -7.73466
ltibia 24.6507
lfoot -36.1789 32.6356
ltoes 18.5808
2138
root 9.86294 15.8933 -16.5664 -13.2507 -154.932 4.95967
lowerback -8.24626 4.24827 2.96919
upperback 3.26687 5.50348 -2.62608
thorax 8.64995 2.9032 -3.57894
lowerneck -4.84744 3.84714 4.56292
upperneck 31.144 2.04724 1.36657
head 10.8773 0.703702 -0.256793
rclavicle -1.47101e-014 1.74931e-014
rhumerus 16.2047 48.7697 -23.2115
rradius 126.799
rwrist -72.8808
rhand -43.9429 -20.1044
rfingers 7.12502
rthumb -16.7662 -49.4004
lclavicle -1.47101e-014 1.74931e-014
lhumerus -45.8279 17.644 49.252
lradius 18.0275
lwrist 31.6044
lhand -12.4668 10.0432
lfingers 7.12502
lthumb 13.6071 39.5784
rfemur -2.99159 -2.13227 16.1208
rtibia 36.4554
rfoot -28.7945 -24.8303
rtoes 4.75977
lfemur 8.67988 -4.07283 -7.74962
ltibia 24.6325
lfoot -36.057 32.5831
ltoes 18.5098
2139
root 9.86574 15.8938 -16.5647 -13.2466 -154.764 4.94966
lowerback -8.21338 4.28096 3.02553
upperback 3.29411 5.54226 -2.63778
thorax 8.6715 2.92616 -3.61749
lowerneck -4.82079 3.88923 4.56265
upperneck 31.5933 1.9883 1.48522
head 11.0462 0.668651 -0.223863
rclavicle 9.42239e-014 4.77083e-015
rhumerus 15.2517 48.8155 -23.8708
rradius 126.58
rwrist -72.7484
rhand -43.8897 -20.0515
rfingers 7.12502
rthumb -16.715 -49.3518
lclavicle 9.42239e-014 4.77083e-015
lhumerus -45.5355 17.3992 49.3816
lradius 18.4098
lwrist 32.0736
lhand -12.5824 9.9782
lfingers 7.12502
lthumb 13.4957 39.5209
rfemur -2.96229 -2.15734 16.1063
rtibia 36.4468
rfoot -28.9087 -24.8993
rtoes 4.8084
lfemur 8.62242 -4.12516 -7.76104
ltibia 24.6157
lfoot -35.9612 32.5238
ltoes 18.4522
2140
root 9.86843 15.8941 -16.5633 -13.2471 -154.602 4.9484
lowerback -8.18028 4.31303 3.09387
upperback 3.31826 5.57896 -2.64964
thorax 8.69075 2.9488 -3.66338
lowerneck -4.79868 3.93221 4.57309
upperneck 32.0298 1.931 1.59744
head 11.2131 0.635572 -0.19459
rclavicle 3.22031e-014 -3.33958e-014
rhumerus 14.2985 48.8531 -24.5369
rradius 126.351
rwrist -72.6194
rhand -43.8453 -19.9698
rfingers 7.12502
rthumb -16.6723 -49.2738
lclavicle 3.22031e-014 -3.33958e-014
lhumerus -45.2347 17.1282 49.5248
lradius 18.817
lwrist 32.5727
lhand -12.7021 9.91238
lfingers 7.12502
lthumb 13.3804 39.4627
rfemur -2.93167 -2.18535 16.0998
rtibia 36.4373
rfoot -29.016 -24.9631
rtoes 4.84581
lfemur 8.56896 -4.18761 -7.76553
ltibia 24.6022
lfoot -35.908 32.4391
ltoes 18.4394
2141
root 9.8709 15.8942 -16.562 -13.2502 -154.445 4.95236
lowerback -8.15075 4.34388 3.17845
upperback 3.34227 5.6126 -2.66801
thorax 8.71425 2.97114 -3.72558
lowerneck -4.77084 3.97428 4.58873
upperneck 32.444 1.87291 1.71015
head 11.3719 0.603507 -0.165875
rclavicle -1.98785e-016 0
rhumerus 13.3382 48.875 -25.2246
rradius 126.115
rwrist -72.4945
rhand -43.813 -19.8776
rfingers 7.12502
rthumb -16.6411 -49.1842
lclavicle -1.98785e-016 0
lhumerus -44.9201 16.8488 49.6612
lradius 19.2411
lwrist 33.0708
lhand -12.8095 9.84271
lfingers 7.12502
lthumb 13.2769 39.3998
rfemur -2.90027 -2.22452 16.0948
rtibia 36.427
rfoot -29.1044 -25.0259
rtoes 4.85432
lfemur 8.51703 -4.25851 -7.76649
ltibia 24.5935
lfoot -35.8919 32.3289
ltoes 18.4689
2142
root 9.87318 15.8943 -16.5609 -13.2531 -154.293 4.96025
lowerback -8.12298 4.37058 3.25204
upperback 3.36138 5.64122 -2.6731
thorax 8.73035 2.98998 -3.76836
lowerneck -4.74858 4.01518 4.60116
upperneck 32.8554 1.81771 1.80612
head 11.5324 0.570853 -0.142189
rclavicle -2.5842e-015 7.15625e-014
rhumerus 12.3782 48.8968 -25.8972
rradius 125.877
rwrist -72.3635
rhand -43.7917 -19.7803
rfingers 7.12502
rthumb -16.6207 -49.0887
lclavicle -2.5842e-015 7.15625e-014
lhumerus -44.6223 16.6016 49.7847
lradius 19.6803
lwrist 33.52
lhand -12.8853 9.78115
lfingers 7.12502
lthumb 13.2037 39.343
rfemur -2.87149 -2.26653 16.0923
rtibia 36.4169
rfoot -29.1905 -25.0789
rtoes 4.88388
lfemur 8.46339 -4.30474 -7.75338
ltibia 24.5888
lfoot -35.8462 32.2173
ltoes 18.4731
2143
root 9.87528 15.8945 -16.56 -13.2536 -154.145 4.96928
lowerback -8.09801 4.39161 3.32036
upperback 3.37666 5.66256 -2.67333
thorax 8.7421 3.00481 -3.8042
lowerneck -4.72082 4.05535 4.60867
upperneck 33.2492 1.76561 1.89553
head 11.6862 0.538764 -0.119581
rclavicle 6.65929e-014 9.54166e-015
rhumerus 11.4108 48.9125 -26.5748
rradius 125.633
rwrist -72.2173
rhand -43.7699 -19.6794
rfingers 7.12502
rthumb -16.5997 -48.9895
lclavicle 6.65929e-014 9.54166e-015
lhumerus -44.3391 16.3841 49.8881
lradius 20.1379
lwrist 33.9287
lhand -12.9328 9.72195
lfingers 7.12502
lthumb 13.158 39.2868
rfemur -2.84702 -2.31419 16.0897
rtibia 36.4077
rfoot -29.2642 -25.1354
rtoes 4.90664
lfemur 8.40539 -4.32341 -7.72908
ltibia 24.5871
lfoot -35.7502 32.1201
ltoes 18.4218
